<?xml version="1.0" encoding="UTF-8" standalone="no" ?>
<!DOCTYPE svg PUBLIC "-//W3C//DTD SVG 1.1//EN" "http://www.w3.org/Graphics/SVG/1.1/DTD/svg11.dtd">
<svg xmlns="http://www.w3.org/2000/svg" xmlns:xlink="http://www.w3.org/1999/xlink" version="1.1" width="1080" height="1080" viewBox="0 0 1080 1080" xml:space="preserve">
<desc>Created with Fabric.js 5.2.4</desc>
<defs>
</defs>
<g transform="matrix(1 0 0 1 540 540)" id="388b5b0b-1fb9-4e75-aa18-83994f7ce8f6"  >
</g>
<g transform="matrix(1 0 0 1 540 540)" id="c2e841d0-cba8-4044-a811-42d3a98fe4d5"  >
<rect style="stroke: none; stroke-width: 1; stroke-dasharray: none; stroke-linecap: butt; stroke-dashoffset: 0; stroke-linejoin: miter; stroke-miterlimit: 4; fill: rgb(255,255,255); fill-rule: nonzero; opacity: 1; visibility: hidden;" vector-effect="non-scaling-stroke"  x="-540" y="-540" rx="0" ry="0" width="1080" height="1080" />
</g>
<g transform="matrix(2.63 0 0 2.63 497.22 540.17)"  >
<g style="" vector-effect="non-scaling-stroke"   >
		<g transform="matrix(1 0 0 1 0 0)"  >
<path style="stroke: none; stroke-width: 1; stroke-dasharray: none; stroke-linecap: butt; stroke-dashoffset: 0; stroke-linejoin: miter; stroke-miterlimit: 4; fill: rgb(255,255,255); fill-rule: nonzero; opacity: 1;" vector-effect="non-scaling-stroke"  transform=" translate(-185.5, -70)" d="M 60 70 C 60 42.3858 82.3858 20 110 20 L 301 20 C 306.523 20 311 24.4772 311 30 L 311 70 C 311 97.6142 288.614 120 261 120 L 70 120 C 64.4772 120 60 115.523 60 110 L 60 70 Z" stroke-linecap="round" />
</g>
		<g transform="matrix(1 0 0 1 -66.5 0)"  >
<circle style="stroke: none; stroke-width: 1; stroke-dasharray: none; stroke-linecap: butt; stroke-dashoffset: 0; stroke-linejoin: miter; stroke-miterlimit: 4; fill: rgb(253,237,239); fill-rule: nonzero; opacity: 1;" vector-effect="non-scaling-stroke"  cx="0" cy="0" r="30" />
</g>
		<g transform="matrix(1 0 0 1 -64.82 -8.16)"  >
<path style="stroke: rgb(238,74,98); stroke-width: 2; stroke-dasharray: none; stroke-linecap: round; stroke-dashoffset: 0; stroke-linejoin: round; stroke-miterlimit: 4; fill: none; fill-rule: nonzero; opacity: 1;" vector-effect="non-scaling-stroke"  transform=" translate(-120.69, -61.84)" d="M 126.703 61.8438 C 126.435 65.4579 123.695 68.4062 120.687 68.4062 C 117.68 68.4062 114.935 65.4586 114.672 61.8438 C 114.398 58.084 117.064 55.2812 120.687 55.2812 C 124.311 55.2812 126.977 58.1523 126.703 61.8438 Z" stroke-linecap="round" />
</g>
		<g transform="matrix(1 0 0 1 -64.81 8.25)"  >
<path style="stroke: rgb(238,74,98); stroke-width: 2; stroke-dasharray: none; stroke-linecap: butt; stroke-dashoffset: 0; stroke-linejoin: miter; stroke-miterlimit: 10; fill: none; fill-rule: nonzero; opacity: 1;" vector-effect="non-scaling-stroke"  transform=" translate(-120.69, -78.25)" d="M 120.688 72.7812 C 114.74 72.7812 108.704 76.0625 107.587 82.2559 C 107.45 83.0023 107.875 83.7188 108.657 83.7188 L 132.719 83.7188 C 133.501 83.7188 133.923 83.0023 133.789 82.2559 C 132.671 76.0625 126.635 72.7812 120.688 72.7812 Z" stroke-linecap="round" />
</g>
		<g transform="matrix(1 0 0 1 -78.48 -2.14)"  >
<path style="stroke: rgb(238,74,98); stroke-width: 2; stroke-dasharray: none; stroke-linecap: round; stroke-dashoffset: 0; stroke-linejoin: round; stroke-miterlimit: 4; fill: none; fill-rule: nonzero; opacity: 1;" vector-effect="non-scaling-stroke"  transform=" translate(-107.02, -67.86)" d="M 107.016 64.0312 L 107.016 71.6875 M 110.844 67.8594 L 103.188 67.8594" stroke-linecap="round" />
</g>
		<g transform="matrix(1 0 0 1 13.2 -15.89)"  >
<path style="stroke: none; stroke-width: 1; stroke-dasharray: none; stroke-linecap: butt; stroke-dashoffset: 0; stroke-linejoin: miter; stroke-miterlimit: 4; fill: rgb(239,82,105); fill-rule: nonzero; opacity: 1;" vector-effect="non-scaling-stroke"  transform=" translate(-198.71, -54.11)" d="M 164.044 64 L 164.044 62.428 C 165.708 61.14 167.152 59.984 168.376 58.96 C 169.608 57.936 170.648 57.016 171.496 56.2 C 172.344 55.384 173.024 54.644 173.536 53.98 C 174.056 53.316 174.432 52.704 174.664 52.144 C 174.896 51.576 175.012 51.032 175.012 50.512 C 175.012 49.808 174.844 49.164 174.508 48.58 C 174.172 47.996 173.716 47.532 173.14 47.188 C 172.572 46.844 171.928 46.672 171.208 46.672 C 170.512 46.672 169.876 46.844 169.3 47.188 C 168.724 47.532 168.228 48.028 167.812 48.676 C 167.404 49.324 167.108 50.096 166.924 50.992 L 164.236 49.816 C 164.428 48.92 164.736 48.104 165.16 47.368 C 165.584 46.632 166.108 46 166.732 45.472 C 167.356 44.944 168.06 44.54 168.844 44.26 C 169.628 43.972 170.476 43.828 171.388 43.828 C 172.732 43.828 173.932 44.116 174.988 44.692 C 176.052 45.26 176.888 46.044 177.496 47.044 C 178.104 48.036 178.408 49.164 178.408 50.428 C 178.408 51.068 178.316 51.696 178.132 52.312 C 177.956 52.928 177.664 53.56 177.256 54.208 C 176.856 54.856 176.324 55.532 175.66 56.236 C 175.004 56.94 174.2 57.7 173.248 58.516 C 172.304 59.324 171.192 60.208 169.912 61.168 L 178.768 61.168 L 178.768 64 L 164.044 64 Z M 190.122 64.384 C 188.506 64.384 187.086 63.956 185.862 63.1 C 184.646 62.236 183.698 61.032 183.018 59.488 C 182.346 57.944 182.01 56.152 182.01 54.112 C 182.01 52.064 182.346 50.272 183.018 48.736 C 183.698 47.192 184.646 45.992 185.862 45.136 C 187.086 44.272 188.506 43.84 190.122 43.84 C 191.746 43.84 193.166 44.272 194.382 45.136 C 195.598 45.992 196.542 47.192 197.214 48.736 C 197.894 50.272 198.234 52.064 198.234 54.112 C 198.234 56.152 197.894 57.944 197.214 59.488 C 196.542 61.032 195.598 62.236 194.382 63.1 C 193.166 63.956 191.746 64.384 190.122 64.384 Z M 190.122 61.6 C 191.098 61.6 191.942 61.296 192.654 60.688 C 193.374 60.08 193.93 59.216 194.322 58.096 C 194.722 56.968 194.922 55.64 194.922 54.112 C 194.922 52.576 194.722 51.248 194.322 50.128 C 193.93 49.008 193.374 48.144 192.654 47.536 C 191.942 46.928 191.098 46.624 190.122 46.624 C 189.154 46.624 188.31 46.928 187.59 47.536 C 186.87 48.144 186.31 49.008 185.91 50.128 C 185.518 51.248 185.322 52.576 185.322 54.112 C 185.322 55.64 185.518 56.968 185.91 58.096 C 186.31 59.216 186.87 60.08 187.59 60.688 C 188.31 61.296 189.154 61.6 190.122 61.6 Z M 202.712 64 L 202.712 44.2 L 205.856 44.2 L 205.856 52.756 L 213.704 44.2 L 217.568 44.2 L 208.7 53.824 L 218.696 64 L 214.34 64 L 205.856 55.408 L 205.856 64 L 202.712 64 Z M 225.917 60.208 L 225.917 55.348 L 221.057 55.348 L 221.057 52.756 L 225.917 52.756 L 225.917 47.896 L 228.497 47.896 L 228.497 52.756 L 233.369 52.756 L 233.369 55.348 L 228.497 55.348 L 228.497 60.208 L 225.917 60.208 Z" stroke-linecap="round" />
</g>
		<g transform="matrix(1 0 0 1 41.26 11.52)"  >
<path style="stroke: none; stroke-width: 1; stroke-dasharray: none; stroke-linecap: butt; stroke-dashoffset: 0; stroke-linejoin: miter; stroke-miterlimit: 4; fill: rgb(82,82,82); fill-rule: nonzero; opacity: 1;" vector-effect="non-scaling-stroke"  transform=" translate(-226.76, -81.52)" d="M 165.52 77.655 L 165.52 81.15 L 169.33 81.15 L 169.33 82.275 L 165.52 82.275 L 165.52 85.875 L 169.78 85.875 L 169.78 87 L 164.155 87 L 164.155 76.53 L 169.78 76.53 L 169.78 77.655 L 165.52 77.655 Z M 175.85 78.63 C 176.85 78.63 177.66 78.935 178.28 79.545 C 178.9 80.145 179.21 81.015 179.21 82.155 L 179.21 87 L 177.86 87 L 177.86 82.35 C 177.86 81.53 177.655 80.905 177.245 80.475 C 176.835 80.035 176.275 79.815 175.565 79.815 C 174.845 79.815 174.27 80.04 173.84 80.49 C 173.42 80.94 173.21 81.595 173.21 82.455 L 173.21 87 L 171.845 87 L 171.845 78.78 L 173.21 78.78 L 173.21 79.95 C 173.48 79.53 173.845 79.205 174.305 78.975 C 174.775 78.745 175.29 78.63 175.85 78.63 Z M 182.805 80.115 C 183.045 79.645 183.385 79.28 183.825 79.02 C 184.275 78.76 184.82 78.63 185.46 78.63 L 185.46 80.04 L 185.1 80.04 C 183.57 80.04 182.805 80.87 182.805 82.53 L 182.805 87 L 181.44 87 L 181.44 78.78 L 182.805 78.78 L 182.805 80.115 Z M 190.621 87.135 C 189.851 87.135 189.151 86.96 188.521 86.61 C 187.901 86.26 187.411 85.765 187.051 85.125 C 186.701 84.475 186.526 83.725 186.526 82.875 C 186.526 82.035 186.706 81.295 187.066 80.655 C 187.436 80.005 187.936 79.51 188.566 79.17 C 189.196 78.82 189.901 78.645 190.681 78.645 C 191.461 78.645 192.166 78.82 192.796 79.17 C 193.426 79.51 193.921 80 194.281 80.64 C 194.651 81.28 194.836 82.025 194.836 82.875 C 194.836 83.725 194.646 84.475 194.266 85.125 C 193.896 85.765 193.391 86.26 192.751 86.61 C 192.111 86.96 191.401 87.135 190.621 87.135 Z M 190.621 85.935 C 191.111 85.935 191.571 85.82 192.001 85.59 C 192.431 85.36 192.776 85.015 193.036 84.555 C 193.306 84.095 193.441 83.535 193.441 82.875 C 193.441 82.215 193.311 81.655 193.051 81.195 C 192.791 80.735 192.451 80.395 192.031 80.175 C 191.611 79.945 191.156 79.83 190.666 79.83 C 190.166 79.83 189.706 79.945 189.286 80.175 C 188.876 80.395 188.546 80.735 188.296 81.195 C 188.046 81.655 187.921 82.215 187.921 82.875 C 187.921 83.545 188.041 84.11 188.281 84.57 C 188.531 85.03 188.861 85.375 189.271 85.605 C 189.681 85.825 190.131 85.935 190.621 85.935 Z M 197.996 75.9 L 197.996 87 L 196.631 87 L 196.631 75.9 L 197.996 75.9 Z M 201.687 75.9 L 201.687 87 L 200.322 87 L 200.322 75.9 L 201.687 75.9 Z M 211.513 82.575 C 211.513 82.835 211.498 83.11 211.468 83.4 L 204.898 83.4 C 204.948 84.21 205.223 84.845 205.723 85.305 C 206.233 85.755 206.848 85.98 207.568 85.98 C 208.158 85.98 208.648 85.845 209.038 85.575 C 209.438 85.295 209.718 84.925 209.878 84.465 L 211.348 84.465 C 211.128 85.255 210.688 85.9 210.028 86.4 C 209.368 86.89 208.548 87.135 207.568 87.135 C 206.788 87.135 206.088 86.96 205.468 86.61 C 204.858 86.26 204.378 85.765 204.028 85.125 C 203.678 84.475 203.503 83.725 203.503 82.875 C 203.503 82.025 203.673 81.28 204.013 80.64 C 204.353 80 204.828 79.51 205.438 79.17 C 206.058 78.82 206.768 78.645 207.568 78.645 C 208.348 78.645 209.038 78.815 209.638 79.155 C 210.238 79.495 210.698 79.965 211.018 80.565 C 211.348 81.155 211.513 81.825 211.513 82.575 Z M 210.103 82.29 C 210.103 81.77 209.988 81.325 209.758 80.955 C 209.528 80.575 209.213 80.29 208.813 80.1 C 208.423 79.9 207.988 79.8 207.508 79.8 C 206.818 79.8 206.228 80.02 205.738 80.46 C 205.258 80.9 204.983 81.51 204.913 82.29 L 210.103 82.29 Z M 212.805 82.86 C 212.805 82.02 212.975 81.285 213.315 80.655 C 213.655 80.015 214.12 79.52 214.71 79.17 C 215.31 78.82 215.98 78.645 216.72 78.645 C 217.36 78.645 217.955 78.795 218.505 79.095 C 219.055 79.385 219.475 79.77 219.765 80.25 L 219.765 75.9 L 221.145 75.9 L 221.145 87 L 219.765 87 L 219.765 85.455 C 219.495 85.945 219.095 86.35 218.565 86.67 C 218.035 86.98 217.415 87.135 216.705 87.135 C 215.975 87.135 215.31 86.955 214.71 86.595 C 214.12 86.235 213.655 85.73 213.315 85.08 C 212.975 84.43 212.805 83.69 212.805 82.86 Z M 219.765 82.875 C 219.765 82.255 219.64 81.715 219.39 81.255 C 219.14 80.795 218.8 80.445 218.37 80.205 C 217.95 79.955 217.485 79.83 216.975 79.83 C 216.465 79.83 216 79.95 215.58 80.19 C 215.16 80.43 214.825 80.78 214.575 81.24 C 214.325 81.7 214.2 82.24 214.2 82.86 C 214.2 83.49 214.325 84.04 214.575 84.51 C 214.825 84.97 215.16 85.325 215.58 85.575 C 216 85.815 216.465 85.935 216.975 85.935 C 217.485 85.935 217.95 85.815 218.37 85.575 C 218.8 85.325 219.14 84.97 219.39 84.51 C 219.64 84.04 219.765 83.495 219.765 82.875 Z M 228.816 85.89 L 232.476 85.89 L 232.476 87 L 227.451 87 L 227.451 76.545 L 228.816 76.545 L 228.816 85.89 Z M 241.426 82.575 C 241.426 82.835 241.411 83.11 241.381 83.4 L 234.811 83.4 C 234.861 84.21 235.136 84.845 235.636 85.305 C 236.146 85.755 236.761 85.98 237.481 85.98 C 238.071 85.98 238.561 85.845 238.951 85.575 C 239.351 85.295 239.631 84.925 239.791 84.465 L 241.261 84.465 C 241.041 85.255 240.601 85.9 239.941 86.4 C 239.281 86.89 238.461 87.135 237.481 87.135 C 236.701 87.135 236.001 86.96 235.381 86.61 C 234.771 86.26 234.291 85.765 233.941 85.125 C 233.591 84.475 233.416 83.725 233.416 82.875 C 233.416 82.025 233.586 81.28 233.926 80.64 C 234.266 80 234.741 79.51 235.351 79.17 C 235.971 78.82 236.681 78.645 237.481 78.645 C 238.261 78.645 238.951 78.815 239.551 79.155 C 240.151 79.495 240.611 79.965 240.931 80.565 C 241.261 81.155 241.426 81.825 241.426 82.575 Z M 240.016 82.29 C 240.016 81.77 239.901 81.325 239.671 80.955 C 239.441 80.575 239.126 80.29 238.726 80.1 C 238.336 79.9 237.901 79.8 237.421 79.8 C 236.731 79.8 236.141 80.02 235.651 80.46 C 235.171 80.9 234.896 81.51 234.826 82.29 L 240.016 82.29 Z M 242.717 82.86 C 242.717 82.02 242.887 81.285 243.227 80.655 C 243.567 80.015 244.032 79.52 244.622 79.17 C 245.222 78.82 245.887 78.645 246.617 78.645 C 247.337 78.645 247.962 78.8 248.492 79.11 C 249.022 79.42 249.417 79.81 249.677 80.28 L 249.677 78.78 L 251.057 78.78 L 251.057 87 L 249.677 87 L 249.677 85.47 C 249.407 85.95 249.002 86.35 248.462 86.67 C 247.932 86.98 247.312 87.135 246.602 87.135 C 245.872 87.135 245.212 86.955 244.622 86.595 C 244.032 86.235 243.567 85.73 243.227 85.08 C 242.887 84.43 242.717 83.69 242.717 82.86 Z M 249.677 82.875 C 249.677 82.255 249.552 81.715 249.302 81.255 C 249.052 80.795 248.712 80.445 248.282 80.205 C 247.862 79.955 247.397 79.83 246.887 79.83 C 246.377 79.83 245.912 79.95 245.492 80.19 C 245.072 80.43 244.737 80.78 244.487 81.24 C 244.237 81.7 244.112 82.24 244.112 82.86 C 244.112 83.49 244.237 84.04 244.487 84.51 C 244.737 84.97 245.072 85.325 245.492 85.575 C 245.912 85.815 246.377 85.935 246.887 85.935 C 247.397 85.935 247.862 85.815 248.282 85.575 C 248.712 85.325 249.052 84.97 249.302 84.51 C 249.552 84.04 249.677 83.495 249.677 82.875 Z M 254.729 80.115 C 254.969 79.645 255.309 79.28 255.749 79.02 C 256.199 78.76 256.744 78.63 257.384 78.63 L 257.384 80.04 L 257.024 80.04 C 255.494 80.04 254.729 80.87 254.729 82.53 L 254.729 87 L 253.364 87 L 253.364 78.78 L 254.729 78.78 L 254.729 80.115 Z M 262.965 78.63 C 263.965 78.63 264.775 78.935 265.395 79.545 C 266.015 80.145 266.325 81.015 266.325 82.155 L 266.325 87 L 264.975 87 L 264.975 82.35 C 264.975 81.53 264.77 80.905 264.36 80.475 C 263.95 80.035 263.39 79.815 262.68 79.815 C 261.96 79.815 261.385 80.04 260.955 80.49 C 260.535 80.94 260.325 81.595 260.325 82.455 L 260.325 87 L 258.96 87 L 258.96 78.78 L 260.325 78.78 L 260.325 79.95 C 260.595 79.53 260.96 79.205 261.42 78.975 C 261.89 78.745 262.405 78.63 262.965 78.63 Z M 276.054 82.575 C 276.054 82.835 276.039 83.11 276.009 83.4 L 269.439 83.4 C 269.489 84.21 269.764 84.845 270.264 85.305 C 270.774 85.755 271.389 85.98 272.109 85.98 C 272.699 85.98 273.189 85.845 273.579 85.575 C 273.979 85.295 274.259 84.925 274.419 84.465 L 275.889 84.465 C 275.669 85.255 275.229 85.9 274.569 86.4 C 273.909 86.89 273.089 87.135 272.109 87.135 C 271.329 87.135 270.629 86.96 270.009 86.61 C 269.399 86.26 268.919 85.765 268.569 85.125 C 268.219 84.475 268.044 83.725 268.044 82.875 C 268.044 82.025 268.214 81.28 268.554 80.64 C 268.894 80 269.369 79.51 269.979 79.17 C 270.599 78.82 271.309 78.645 272.109 78.645 C 272.889 78.645 273.579 78.815 274.179 79.155 C 274.779 79.495 275.239 79.965 275.559 80.565 C 275.889 81.155 276.054 81.825 276.054 82.575 Z M 274.644 82.29 C 274.644 81.77 274.529 81.325 274.299 80.955 C 274.069 80.575 273.754 80.29 273.354 80.1 C 272.964 79.9 272.529 79.8 272.049 79.8 C 271.359 79.8 270.769 80.02 270.279 80.46 C 269.799 80.9 269.524 81.51 269.454 82.29 L 274.644 82.29 Z M 279.221 80.115 C 279.461 79.645 279.801 79.28 280.241 79.02 C 280.691 78.76 281.236 78.63 281.876 78.63 L 281.876 80.04 L 281.516 80.04 C 279.986 80.04 279.221 80.87 279.221 82.53 L 279.221 87 L 277.856 87 L 277.856 78.78 L 279.221 78.78 L 279.221 80.115 Z M 286.362 87.135 C 285.732 87.135 285.167 87.03 284.667 86.82 C 284.167 86.6 283.772 86.3 283.482 85.92 C 283.192 85.53 283.032 85.085 283.002 84.585 L 284.412 84.585 C 284.452 84.995 284.642 85.33 284.982 85.59 C 285.332 85.85 285.787 85.98 286.347 85.98 C 286.867 85.98 287.277 85.865 287.577 85.635 C 287.877 85.405 288.027 85.115 288.027 84.765 C 288.027 84.405 287.867 84.14 287.547 83.97 C 287.227 83.79 286.732 83.615 286.062 83.445 C 285.452 83.285 284.952 83.125 284.562 82.965 C 284.182 82.795 283.852 82.55 283.572 82.23 C 283.302 81.9 283.167 81.47 283.167 80.94 C 283.167 80.52 283.292 80.135 283.542 79.785 C 283.792 79.435 284.147 79.16 284.607 78.96 C 285.067 78.75 285.592 78.645 286.182 78.645 C 287.092 78.645 287.827 78.875 288.387 79.335 C 288.947 79.795 289.247 80.425 289.287 81.225 L 287.922 81.225 C 287.892 80.795 287.717 80.45 287.397 80.19 C 287.087 79.93 286.667 79.8 286.137 79.8 C 285.647 79.8 285.257 79.905 284.967 80.115 C 284.677 80.325 284.532 80.6 284.532 80.94 C 284.532 81.21 284.617 81.435 284.787 81.615 C 284.967 81.785 285.187 81.925 285.447 82.035 C 285.717 82.135 286.087 82.25 286.557 82.38 C 287.147 82.54 287.627 82.7 287.997 82.86 C 288.367 83.01 288.682 83.24 288.942 83.55 C 289.212 83.86 289.352 84.265 289.362 84.765 C 289.362 85.215 289.237 85.62 288.987 85.98 C 288.737 86.34 288.382 86.625 287.922 86.835 C 287.472 87.035 286.952 87.135 286.362 87.135 Z" stroke-linecap="round" />
</g>
</g>
</g>
<g transform="matrix(4.83 0 0 2 596.49 573.2)" id="4e53e7d9-2c14-4746-a79d-8769b3c0c7d8"  >
<rect style="stroke: rgb(0,0,0); stroke-width: 0; stroke-dasharray: none; stroke-linecap: butt; stroke-dashoffset: 0; stroke-linejoin: miter; stroke-miterlimit: 4; fill: rgb(255,255,255); fill-rule: nonzero; opacity: 1;" vector-effect="non-scaling-stroke"  x="-37.46" y="-19.415" rx="0" ry="0" width="74.92" height="38.83" />
</g>
<g transform="matrix(1 0 0 1 593.05 571.87)" style="" id="1febdd64-66be-4c85-890b-167d466aeab8"  >
		<text xml:space="preserve" font-family="Lato" font-size="41" font-style="normal" font-weight="400" style="stroke: none; stroke-width: 1; stroke-dasharray: none; stroke-linecap: butt; stroke-dashoffset: 0; stroke-linejoin: miter; stroke-miterlimit: 4; fill: rgb(77,71,71); fill-rule: nonzero; opacity: 0.87; white-space: pre;" ><tspan x="-177.98" y="12.88" >học viên đã theo học</tspan></text>
</g>
</svg>