<svg width="380" height="190" xmlns="http://www.w3.org/2000/svg" xmlns:svg="http://www.w3.org/2000/svg">
    <defs>
        <filter color-interpolation-filters="sRGB" filterUnits="userSpaceOnUse" height="190" id="filter0_d_59_4" width="380" x="0" y="0">
            <feFlood flood-opacity="0" result="BackgroundImageFix"/>
            <feColorMatrix in="SourceAlpha" result="hardAlpha" type="matrix" values="0 0 0 0 0 0 0 0 0 0 0 0 0 0 0 0 0 0 127 0"/>
            <feOffset dy="20"/>
            <feGaussianBlur stdDeviation="20"/>
            <feComposite in2="hardAlpha" operator="out"/>
            <feColorMatrix type="matrix" values="0 0 0 0 0 0 0 0 0 0 0 0 0 0 0 0 0 0 0.1 0"/>
            <feBlend in2="BackgroundImageFix"/>
            <feBlend in="SourceGraphic" in2="effect1_dropShadow_59_4"/>
        </filter>
    </defs>
    <g class="layer">
        <title>Layer 1</title>
        <g filter="url(#filter0_d_59_4)" id="svg_1">
            <path d="m40,87c0,-27.61 22.39,-50 50,-50l240,0c5.52,0 10,4.48 10,10l0,50c0,27.61 -22.39,50 -50,50l-240,0c-5.52,0 -10,-4.48 -10,-10l0,-50z" fill="white" id="svg_2"/>
            <circle cx="99" cy="92" fill="#FDEDEF" id="svg_3" r="25"/>
            <path d="m105.09,104.44c-0.95,0 -2.29,-0.35 -4.29,-1.47c-2.44,-1.36 -4.33,-2.63 -6.75,-5.05c-2.34,-2.33 -3.48,-3.84 -5.07,-6.74c-1.8,-3.27 -1.49,-4.99 -1.15,-5.72c0.41,-0.88 1.01,-1.4 1.79,-1.92c0.44,-0.29 0.91,-0.54 1.4,-0.74c0.05,-0.02 0.09,-0.04 0.13,-0.06c0.24,-0.11 0.61,-0.28 1.07,-0.1c0.31,0.12 0.59,0.35 1.02,0.78c0.89,0.88 2.1,2.83 2.55,3.78c0.3,0.65 0.5,1.07 0.5,1.55c0,0.56 -0.28,0.99 -0.62,1.46c-0.07,0.08 -0.13,0.17 -0.19,0.25c-0.37,0.49 -0.46,0.63 -0.4,0.88c0.11,0.51 0.92,2.01 2.25,3.34c1.34,1.34 2.8,2.1 3.31,2.21c0.26,0.05 0.41,-0.03 0.91,-0.42c0.07,-0.05 0.15,-0.11 0.22,-0.17c0.53,-0.38 0.94,-0.66 1.48,-0.66l0,0c0.48,0 0.89,0.21 1.56,0.55c0.88,0.44 2.89,1.64 3.77,2.53c0.42,0.43 0.66,0.7 0.78,1.01c0.18,0.47 0.01,0.83 -0.1,1.08c-0.01,0.04 -0.04,0.08 -0.06,0.13c-0.2,0.49 -0.45,0.95 -0.74,1.4c-0.52,0.77 -1.05,1.37 -1.93,1.78c-0.45,0.21 -0.94,0.32 -1.44,0.32z" fill="#EE4A62" id="svg_4"/>
            <text fill="#7f7f7f" font-family="Monospace" font-size="24" id="svg_7" stroke-width="0" text-anchor="middle" transform="matrix(0.840174 0 0 0.868877 24.1936 5.34474)" x="239.71" xml:space="preserve" y="81.72">Hỗ trợ trực tuyến</text>
            <text fill="#ff0000" font-family="Monospace" font-size="24" id="svg_8" stroke-width="0" text-anchor="middle" transform="matrix(1.2653 0 0 1.14418 -24.7633 2.4548)" x="197" xml:space="preserve" y="95">0988906829</text>
        </g>
    </g>
</svg>